<svg width="360" height="123" viewBox="0 0 360 123" fill="none" xmlns="http://www.w3.org/2000/svg">
<circle cx="61.5" cy="61.5" r="52.5" stroke="white" stroke-opacity="0.1" stroke-width="18"/>
<circle cx="61.5" cy="61.5" r="52.5" stroke="white" stroke-opacity="0.1" stroke-width="3"/>
<path fill-rule="evenodd" clip-rule="evenodd" d="M61.5 9.00008C61.5 7.34323 60.1549 5.99164 58.5004 6.07976C29.2434 7.63795 6 31.8546 6 61.5001C6 92.1519 30.8482 117 61.5 117C75.5475 117 88.3761 111.781 98.1525 103.176C99.3962 102.082 99.4099 100.176 98.2502 98.9927V98.9927C97.0903 97.8094 95.1966 97.798 93.9457 98.8846C85.2573 106.432 73.9121 111 61.5 111C34.1619 111 12 88.8382 12 61.5001C12 35.1694 32.5586 13.6405 58.4996 12.0895C60.1535 11.9906 61.5 10.6569 61.5 9.00008V9.00008Z" fill="url(#paint0_linear_707_274)"/>
<path d="M46.372 71.208C44.188 71.208 42.5067 70.428 41.328 68.868C40.1493 67.308 39.56 65.1327 39.56 62.342C39.56 60.21 39.8547 58.416 40.444 56.96C41.0333 55.4867 41.8827 54.3687 42.992 53.606C44.1013 52.8433 45.4273 52.462 46.97 52.462C47.906 52.462 48.8593 52.67 49.83 53.086C50.8007 53.4847 51.5893 54.0307 52.196 54.724L51.546 56.024C50.8873 55.3133 50.1593 54.7847 49.362 54.438C48.582 54.0913 47.776 53.918 46.944 53.918C45.0893 53.918 43.6593 54.6027 42.654 55.972C41.6487 57.324 41.146 59.3433 41.146 62.03V64.656H40.964C41.068 63.616 41.3627 62.7233 41.848 61.978C42.3507 61.2153 43.0007 60.6347 43.798 60.236C44.6127 59.82 45.514 59.612 46.502 59.612C47.6287 59.612 48.6253 59.8547 49.492 60.34C50.3587 60.8253 51.0347 61.5013 51.52 62.368C52.0053 63.2347 52.248 64.2313 52.248 65.358C52.248 66.4847 51.9967 67.4987 51.494 68.4C50.9913 69.284 50.298 69.9773 49.414 70.48C48.53 70.9653 47.516 71.208 46.372 71.208ZM46.242 69.778C47.1087 69.778 47.8713 69.596 48.53 69.232C49.206 68.868 49.726 68.3567 50.09 67.698C50.4713 67.0393 50.662 66.2767 50.662 65.41C50.662 64.5433 50.4713 63.7893 50.09 63.148C49.726 62.4893 49.206 61.978 48.53 61.614C47.8713 61.2327 47.1087 61.042 46.242 61.042C45.3753 61.042 44.604 61.2327 43.928 61.614C43.2693 61.978 42.758 62.4893 42.394 63.148C42.03 63.7893 41.848 64.5433 41.848 65.41C41.848 66.2767 42.03 67.0393 42.394 67.698C42.758 68.3567 43.2693 68.868 43.928 69.232C44.604 69.596 45.3753 69.778 46.242 69.778ZM61.3898 71.208C60.1592 71.208 58.9892 71.0173 57.8798 70.636C56.7705 70.2547 55.8258 69.7 55.0458 68.972L55.7218 67.672C56.6058 68.4 57.4985 68.9287 58.3998 69.258C59.3012 69.5873 60.2892 69.752 61.3638 69.752C62.8198 69.752 63.9292 69.4313 64.6918 68.79C65.4718 68.1487 65.8618 67.2213 65.8618 66.008C65.8618 64.8293 65.4632 63.9367 64.6658 63.33C63.8685 62.706 62.7072 62.394 61.1818 62.394H58.5038V60.99H61.0778C62.3778 60.99 63.4092 60.652 64.1718 59.976C64.9518 59.2827 65.3418 58.3467 65.3418 57.168C65.3418 56.128 64.9865 55.3307 64.2758 54.776C63.5825 54.204 62.5858 53.918 61.2858 53.918C59.2578 53.918 57.5072 54.6547 56.0338 56.128L55.3838 54.828C56.0772 54.0827 56.9525 53.502 58.0098 53.086C59.0672 52.67 60.1852 52.462 61.3638 52.462C63.0972 52.462 64.4578 52.8693 65.4458 53.684C66.4512 54.4987 66.9538 55.634 66.9538 57.09C66.9538 58.234 66.6332 59.2133 65.9918 60.028C65.3505 60.8427 64.4665 61.3973 63.3398 61.692V61.406C64.6572 61.6313 65.6712 62.16 66.3818 62.992C67.1098 63.8067 67.4738 64.838 67.4738 66.086C67.4738 67.6807 66.9278 68.9373 65.8358 69.856C64.7612 70.7573 63.2792 71.208 61.3898 71.208Z" fill="white"/>
<path d="M74.544 71H73.632L80.368 59.72H81.28L74.544 71ZM73.632 66.488C72.7787 66.488 72.1067 66.1893 71.616 65.592C71.136 64.984 70.896 64.1307 70.896 63.032C70.896 61.944 71.1413 61.1013 71.632 60.504C72.1227 59.896 72.7893 59.592 73.632 59.592C74.4747 59.592 75.1413 59.896 75.632 60.504C76.1227 61.1013 76.368 61.944 76.368 63.032C76.368 64.1307 76.1227 64.984 75.632 65.592C75.1413 66.1893 74.4747 66.488 73.632 66.488ZM73.632 65.736C74.208 65.736 74.656 65.512 74.976 65.064C75.3067 64.6053 75.472 63.928 75.472 63.032C75.472 62.1467 75.3067 61.48 74.976 61.032C74.656 60.5733 74.208 60.344 73.632 60.344C73.056 60.344 72.6027 60.5733 72.272 61.032C71.952 61.48 71.792 62.1467 71.792 63.032C71.792 63.9387 71.952 64.616 72.272 65.064C72.6027 65.512 73.056 65.736 73.632 65.736ZM81.28 71.128C80.4267 71.128 79.7547 70.8293 79.264 70.232C78.784 69.624 78.544 68.7707 78.544 67.672C78.544 66.584 78.7893 65.7413 79.28 65.144C79.7707 64.536 80.4373 64.232 81.28 64.232C82.1333 64.232 82.8 64.536 83.28 65.144C83.7707 65.7413 84.016 66.584 84.016 67.672C84.016 68.7707 83.7707 69.624 83.28 70.232C82.8 70.8293 82.1333 71.128 81.28 71.128ZM81.28 70.376C81.856 70.376 82.304 70.152 82.624 69.704C82.9547 69.2453 83.12 68.568 83.12 67.672C83.12 66.7867 82.9547 66.12 82.624 65.672C82.304 65.2133 81.856 64.984 81.28 64.984C80.7147 64.984 80.2667 65.2133 79.936 65.672C79.616 66.12 79.456 66.7867 79.456 67.672C79.456 68.5787 79.616 69.256 79.936 69.704C80.2667 70.152 80.7147 70.376 81.28 70.376Z" fill="white"/>
<defs>
<linearGradient id="paint0_linear_707_274" x1="52.5516" y1="6.07568" x2="52.5516" y2="117" gradientUnits="userSpaceOnUse">
<stop stop-color="#FF455B"/>
<stop offset="1" stop-color="#FF7245"/>
</linearGradient>
</defs>
</svg>
