<svg width="360" height="123" viewBox="0 0 360 123" fill="none" xmlns="http://www.w3.org/2000/svg">
<circle cx="61.5" cy="61.5" r="52.5" stroke="white" stroke-opacity="0.1" stroke-width="18"/>
<circle cx="61.5" cy="61.5" r="52.5" stroke="white" stroke-opacity="0.1" stroke-width="3"/>
<path fill-rule="evenodd" clip-rule="evenodd" d="M61.5 9.00008C61.5 7.34323 60.1549 5.99164 58.5004 6.07976C29.2434 7.63795 6 31.8546 6 61.5001C6 92.1519 30.8482 117 61.5 117C92.1518 117 117 92.1519 117 61.5001C117 35.4727 99.0839 13.6299 74.9116 7.63145C73.3045 7.23264 71.7297 8.30592 71.417 9.93198V9.93198C71.1038 11.5606 72.1759 13.1256 73.7828 13.5359C95.1792 18.9988 111 38.4019 111 61.5001C111 88.8382 88.8381 111 61.5 111C34.1619 111 12 88.8382 12 61.5001C12 35.1694 32.5586 13.6405 58.4996 12.0895C60.1535 11.9906 61.5 10.6569 61.5 9.00008V9.00008Z" fill="url(#paint0_linear_653_47)"/>
<path d="M44.656 71.208C43.72 71.208 42.7667 71 41.796 70.584C40.8253 70.168 40.028 69.622 39.404 68.946L40.08 67.646C40.7387 68.3567 41.458 68.8853 42.238 69.232C43.0353 69.5787 43.85 69.752 44.682 69.752C46.5193 69.752 47.9407 69.076 48.946 67.724C49.9513 66.3547 50.454 64.3267 50.454 61.64V59.014H50.662C50.5753 60.0367 50.272 60.9293 49.752 61.692C49.2493 62.4547 48.5993 63.044 47.802 63.46C47.0047 63.8587 46.112 64.058 45.124 64.058C43.9973 64.058 43.0007 63.8153 42.134 63.33C41.2673 62.8447 40.5827 62.1687 40.08 61.302C39.5947 60.418 39.352 59.4213 39.352 58.312C39.352 57.168 39.6033 56.154 40.106 55.27C40.6087 54.386 41.302 53.7013 42.186 53.216C43.07 52.7133 44.084 52.462 45.228 52.462C47.4293 52.462 49.1193 53.242 50.298 54.802C51.4767 56.3447 52.066 58.52 52.066 61.328C52.066 63.4427 51.7713 65.2367 51.182 66.71C50.5927 68.1833 49.7433 69.3013 48.634 70.064C47.5247 70.8267 46.1987 71.208 44.656 71.208ZM45.384 62.628C46.2507 62.628 47.0133 62.446 47.672 62.082C48.348 61.7007 48.868 61.1807 49.232 60.522C49.596 59.8633 49.778 59.1093 49.778 58.26C49.778 57.3933 49.596 56.6307 49.232 55.972C48.868 55.3133 48.348 54.802 47.672 54.438C47.0133 54.0567 46.2507 53.866 45.384 53.866C44.5173 53.866 43.746 54.0567 43.07 54.438C42.4113 54.802 41.8913 55.3133 41.51 55.972C41.146 56.6307 40.964 57.3933 40.964 58.26C40.964 59.1093 41.146 59.8633 41.51 60.522C41.8913 61.1807 42.4113 61.7007 43.07 62.082C43.746 62.446 44.5173 62.628 45.384 62.628ZM60.2458 71.208C59.3098 71.208 58.3565 71 57.3858 70.584C56.4152 70.168 55.6178 69.622 54.9938 68.946L55.6698 67.646C56.3285 68.3567 57.0478 68.8853 57.8278 69.232C58.6252 69.5787 59.4398 69.752 60.2718 69.752C62.1092 69.752 63.5305 69.076 64.5358 67.724C65.5412 66.3547 66.0438 64.3267 66.0438 61.64V59.014H66.2518C66.1652 60.0367 65.8618 60.9293 65.3418 61.692C64.8392 62.4547 64.1892 63.044 63.3918 63.46C62.5945 63.8587 61.7018 64.058 60.7138 64.058C59.5872 64.058 58.5905 63.8153 57.7238 63.33C56.8572 62.8447 56.1725 62.1687 55.6698 61.302C55.1845 60.418 54.9418 59.4213 54.9418 58.312C54.9418 57.168 55.1932 56.154 55.6958 55.27C56.1985 54.386 56.8918 53.7013 57.7758 53.216C58.6598 52.7133 59.6738 52.462 60.8178 52.462C63.0192 52.462 64.7092 53.242 65.8878 54.802C67.0665 56.3447 67.6558 58.52 67.6558 61.328C67.6558 63.4427 67.3612 65.2367 66.7718 66.71C66.1825 68.1833 65.3332 69.3013 64.2238 70.064C63.1145 70.8267 61.7885 71.208 60.2458 71.208ZM60.9738 62.628C61.8405 62.628 62.6032 62.446 63.2618 62.082C63.9378 61.7007 64.4578 61.1807 64.8218 60.522C65.1858 59.8633 65.3678 59.1093 65.3678 58.26C65.3678 57.3933 65.1858 56.6307 64.8218 55.972C64.4578 55.3133 63.9378 54.802 63.2618 54.438C62.6032 54.0567 61.8405 53.866 60.9738 53.866C60.1072 53.866 59.3358 54.0567 58.6598 54.438C58.0012 54.802 57.4812 55.3133 57.0998 55.972C56.7358 56.6307 56.5538 57.3933 56.5538 58.26C56.5538 59.1093 56.7358 59.8633 57.0998 60.522C57.4812 61.1807 58.0012 61.7007 58.6598 62.082C59.3358 62.446 60.1072 62.628 60.9738 62.628Z" fill="white"/>
<path d="M74.544 71H73.632L80.368 59.72H81.28L74.544 71ZM73.632 66.488C72.7787 66.488 72.1067 66.1893 71.616 65.592C71.136 64.984 70.896 64.1307 70.896 63.032C70.896 61.944 71.1413 61.1013 71.632 60.504C72.1227 59.896 72.7893 59.592 73.632 59.592C74.4747 59.592 75.1413 59.896 75.632 60.504C76.1227 61.1013 76.368 61.944 76.368 63.032C76.368 64.1307 76.1227 64.984 75.632 65.592C75.1413 66.1893 74.4747 66.488 73.632 66.488ZM73.632 65.736C74.208 65.736 74.656 65.512 74.976 65.064C75.3067 64.6053 75.472 63.928 75.472 63.032C75.472 62.1467 75.3067 61.48 74.976 61.032C74.656 60.5733 74.208 60.344 73.632 60.344C73.056 60.344 72.6027 60.5733 72.272 61.032C71.952 61.48 71.792 62.1467 71.792 63.032C71.792 63.9387 71.952 64.616 72.272 65.064C72.6027 65.512 73.056 65.736 73.632 65.736ZM81.28 71.128C80.4267 71.128 79.7547 70.8293 79.264 70.232C78.784 69.624 78.544 68.7707 78.544 67.672C78.544 66.584 78.7893 65.7413 79.28 65.144C79.7707 64.536 80.4373 64.232 81.28 64.232C82.1333 64.232 82.8 64.536 83.28 65.144C83.7707 65.7413 84.016 66.584 84.016 67.672C84.016 68.7707 83.7707 69.624 83.28 70.232C82.8 70.8293 82.1333 71.128 81.28 71.128ZM81.28 70.376C81.856 70.376 82.304 70.152 82.624 69.704C82.9547 69.2453 83.12 68.568 83.12 67.672C83.12 66.7867 82.9547 66.12 82.624 65.672C82.304 65.2133 81.856 64.984 81.28 64.984C80.7147 64.984 80.2667 65.2133 79.936 65.672C79.616 66.12 79.456 66.7867 79.456 67.672C79.456 68.5787 79.616 69.256 79.936 69.704C80.2667 70.152 80.7147 70.376 81.28 70.376Z" fill="white"/>
<defs>
<linearGradient id="paint0_linear_653_47" x1="61.5" y1="6.07568" x2="61.5" y2="117" gradientUnits="userSpaceOnUse">
<stop stop-color="#FF455B"/>
<stop offset="1" stop-color="#FF7245"/>
</linearGradient>
</defs>
</svg>
