<svg width="360" height="123" viewBox="0 0 360 123" fill="none" xmlns="http://www.w3.org/2000/svg">
<circle cx="61.5" cy="61.5" r="52.5" stroke="white" stroke-opacity="0.1" stroke-width="18"/>
<circle cx="61.5" cy="61.5" r="52.5" stroke="white" stroke-opacity="0.1" stroke-width="3"/>
<path fill-rule="evenodd" clip-rule="evenodd" d="M61.5 9.00008C61.5 7.34323 60.1549 5.99164 58.5004 6.07976C29.2434 7.63795 6 31.8546 6 61.5001C6 92.1519 30.8482 117 61.5 117C91.1454 117 115.362 93.7568 116.92 64.4998C117.008 62.8453 115.657 61.5002 114 61.5002V61.5002C112.343 61.5002 111.009 62.8467 110.911 64.5006C109.36 90.4415 87.8306 111 61.5 111C34.1619 111 12 88.8382 12 61.5001C12 35.1694 32.5586 13.6405 58.4996 12.0895C60.1535 11.9906 61.5 10.6569 61.5 9.00008V9.00008Z" fill="url(#paint0_linear_653_46)"/>
<path d="M45.8 71.208C43.7373 71.208 42.1427 70.766 41.016 69.882C39.8893 68.998 39.326 67.7673 39.326 66.19C39.326 64.9073 39.716 63.85 40.496 63.018C41.2933 62.186 42.3333 61.6833 43.616 61.51V61.822C42.4373 61.5793 41.5013 61.0507 40.808 60.236C40.1147 59.404 39.768 58.4247 39.768 57.298C39.768 55.7727 40.3053 54.5853 41.38 53.736C42.4547 52.8867 43.928 52.462 45.8 52.462C47.6893 52.462 49.1713 52.8867 50.246 53.736C51.3207 54.5853 51.858 55.7727 51.858 57.298C51.858 58.4247 51.5287 59.404 50.87 60.236C50.2287 61.0507 49.3187 61.5793 48.14 61.822V61.51C49.4227 61.6833 50.428 62.186 51.156 63.018C51.9013 63.85 52.274 64.9073 52.274 66.19C52.274 67.7673 51.7107 68.998 50.584 69.882C49.4747 70.766 47.88 71.208 45.8 71.208ZM45.8 69.83C47.4467 69.83 48.6687 69.5267 49.466 68.92C50.2807 68.296 50.688 67.36 50.688 66.112C50.688 64.864 50.2807 63.9367 49.466 63.33C48.6687 62.7233 47.4467 62.42 45.8 62.42C44.1533 62.42 42.9227 62.7233 42.108 63.33C41.3107 63.9367 40.912 64.864 40.912 66.112C40.912 67.36 41.3193 68.296 42.134 68.92C42.9487 69.5267 44.1707 69.83 45.8 69.83ZM45.8 61.016C47.2387 61.016 48.3393 60.6953 49.102 60.054C49.8647 59.4127 50.246 58.5287 50.246 57.402C50.246 56.2753 49.8647 55.4 49.102 54.776C48.3393 54.152 47.2387 53.84 45.8 53.84C44.3613 53.84 43.2607 54.152 42.498 54.776C41.7353 55.4 41.354 56.2753 41.354 57.402C41.354 58.5287 41.7353 59.4127 42.498 60.054C43.2607 60.6953 44.3613 61.016 45.8 61.016ZM61.8318 71.208C61.0345 71.208 60.2545 71.1213 59.4918 70.948C58.7465 70.7747 58.0445 70.5233 57.3858 70.194C56.7272 69.8473 56.1378 69.44 55.6178 68.972L56.2938 67.672C57.1605 68.3827 58.0358 68.9113 58.9198 69.258C59.8212 69.5873 60.7918 69.752 61.8318 69.752C63.2358 69.752 64.3365 69.362 65.1338 68.582C65.9485 67.802 66.3558 66.7793 66.3558 65.514C66.3558 64.214 65.9745 63.148 65.2118 62.316C64.4492 61.484 63.3832 61.068 62.0138 61.068C61.0605 61.068 60.2025 61.2587 59.4398 61.64C58.6945 62.0213 58.0532 62.628 57.5158 63.46H56.2418V52.67H66.8758V54.074H57.8278V62.03H57.3598C57.8452 61.2673 58.5125 60.678 59.3618 60.262C60.2285 59.8287 61.1905 59.612 62.2478 59.612C63.4265 59.612 64.4405 59.8547 65.2898 60.34C66.1565 60.8253 66.8152 61.5013 67.2658 62.368C67.7338 63.2173 67.9678 64.2313 67.9678 65.41C67.9678 66.554 67.7165 67.568 67.2138 68.452C66.7285 69.3187 66.0265 69.9947 65.1078 70.48C64.1892 70.9653 63.0972 71.208 61.8318 71.208Z" fill="white"/>
<path d="M74.544 71H73.632L80.368 59.72H81.28L74.544 71ZM73.632 66.488C72.7787 66.488 72.1067 66.1893 71.616 65.592C71.136 64.984 70.896 64.1307 70.896 63.032C70.896 61.944 71.1413 61.1013 71.632 60.504C72.1227 59.896 72.7893 59.592 73.632 59.592C74.4747 59.592 75.1413 59.896 75.632 60.504C76.1227 61.1013 76.368 61.944 76.368 63.032C76.368 64.1307 76.1227 64.984 75.632 65.592C75.1413 66.1893 74.4747 66.488 73.632 66.488ZM73.632 65.736C74.208 65.736 74.656 65.512 74.976 65.064C75.3067 64.6053 75.472 63.928 75.472 63.032C75.472 62.1467 75.3067 61.48 74.976 61.032C74.656 60.5733 74.208 60.344 73.632 60.344C73.056 60.344 72.6027 60.5733 72.272 61.032C71.952 61.48 71.792 62.1467 71.792 63.032C71.792 63.9387 71.952 64.616 72.272 65.064C72.6027 65.512 73.056 65.736 73.632 65.736ZM81.28 71.128C80.4267 71.128 79.7547 70.8293 79.264 70.232C78.784 69.624 78.544 68.7707 78.544 67.672C78.544 66.584 78.7893 65.7413 79.28 65.144C79.7707 64.536 80.4373 64.232 81.28 64.232C82.1333 64.232 82.8 64.536 83.28 65.144C83.7707 65.7413 84.016 66.584 84.016 67.672C84.016 68.7707 83.7707 69.624 83.28 70.232C82.8 70.8293 82.1333 71.128 81.28 71.128ZM81.28 70.376C81.856 70.376 82.304 70.152 82.624 69.704C82.9547 69.2453 83.12 68.568 83.12 67.672C83.12 66.7867 82.9547 66.12 82.624 65.672C82.304 65.2133 81.856 64.984 81.28 64.984C80.7147 64.984 80.2667 65.2133 79.936 65.672C79.616 66.12 79.456 66.7867 79.456 67.672C79.456 68.5787 79.616 69.256 79.936 69.704C80.2667 70.152 80.7147 70.376 81.28 70.376Z" fill="white"/>
<defs>
<linearGradient id="paint0_linear_653_46" x1="61.4622" y1="6.07568" x2="61.4622" y2="117" gradientUnits="userSpaceOnUse">
<stop stop-color="#FF455B"/>
<stop offset="1" stop-color="#FF7245"/>
</linearGradient>
</defs>
</svg>
